<svg version="1.1" id="_x32_" xmlns="http://www.w3.org/2000/svg" x="0px" y="0px"
	 viewBox="0 0 512 512" xml:space="preserve">
<g>
	<rect x="25.2" y="102.9" class="st0" width="45.9" height="146"/>
	<path class="st0" d="M94.1,358.1c7.8-4.9,15.7-10,23-15.2v-30.2h-23V358.1z"/>
	<rect x="94.1" y="102.9" class="st0" width="23" height="146"/>
	<polygon class="st0" points="254.9,291.2 254.9,102.9 232,102.9 209,102.9 209,291.2 	"/>
	<polygon class="st0" points="186,248.9 186,102.9 163.1,102.9 140.1,102.9 140.1,248.9 	"/>
	<path class="st0" d="M65,375.1c2-1.1,4-2.2,6.2-3.4v-58.9H65V375.1z"/>
	<rect x="485.9" y="102.9" class="st0" width="23.6" height="306.2"/>
	<polygon class="st0" points="415.7,102.9 415.7,409.1 438.7,409.1 462.3,409.1 462.3,102.9 438.7,102.9 	"/>
	<polygon class="st0" points="346.8,102.9 323.8,102.9 323.8,409.1 346.8,409.1 369.8,409.1 392.7,409.1 392.7,102.9 369.8,102.9 	
		"/>
	<rect x="277.9" y="102.9" class="st0" width="23" height="306.2"/>
	<polygon class="st0" points="219.8,409.1 232,409.1 254.9,409.1 254.9,305.4 	"/>
</g>
<path class="st0" d="M183.3,380l-4.4,1.6c-13.6,5.1-50.6,16.9-98.8,16.9c-7.2,0-14.5-0.3-21.5-0.8h0c0.6-0.3,64.5-32.5,91.6-60.1
	l3.3-3.4l-18.4-25.9H236l-34.4,101.5L183.3,380z M177.4,448v-41.4l-29.8,0.4v11.2H48V295.7h129.4v-29.8H18.2V448H177.4z"/>
</svg>
