<svg version="1.1" xmlns="http://www.w3.org/2000/svg" x="0px" y="0px" viewBox="0 0 256 256" style="enable-background:new 0 0 256 256;" xml:space="preserve">
<g>
	<path fill="currentColor" d="M4.7,217.7c-1.6-3.3-0.2-6.3,1.2-8.9c24.1-42.8,56.2-75.8,107.5-83.6c9.4-1.4,18.9-1.4,28.1,1.9
		c12.6,4.5,20.3,14.4,21,27.8c1.1,21.4-7.4,38.3-24.3,51.2c-1.6,1.2-3.8,1.9-4.7,4.1c1.4,1.4,3.2,1.4,4.8,1.5
		c23,1.4,46,1.6,68.9-1.9c17.8-2.8,27-12.9,29.4-30.7c4.6-34.8,3.9-69.4-1.4-104.1c-2.5-16.4-10.4-24.3-29.7-27.3
		c-41.5-6.5-83.2-7.5-124.7,0.6c-12.9,2.5-20.8,10.4-24.2,23c-3.7,13.7-5.2,27.7-4.6,41.9c0.2,3.7,0,7.4-0.2,11
		c-0.1,1.8-0.3,3.7-2.4,4.1c-2.2,0.5-2.9-1.5-3.6-3.1c-2.9-6.5-3.6-13.4-4.2-20.4c-1.5-16.8,1.7-32.8,10.1-47.5
		c9-15.7,24-22,40.8-24.2c37.8-4.9,75.6-4,113.3,2.1c23.3,3.8,35.4,14.9,40.2,37.9c8,38.6,7.8,77.3-1.4,115.6
		c-5.3,22-18.4,32.6-40.8,34.8c-29.7,2.9-59.5,3.3-89.2,0.1c-4.4-0.5-8.8-1.2-13-2.6c-6.8-2.2-7.6-6.3-2.1-10.9
		c5.5-4.6,11.5-8.6,17-13.1c12.8-10.6,24.1-22.3,28.5-39.2c3.8-14.7-2.2-22.3-17.2-21.4c-10.4,0.6-19.9,4.6-29.2,9
		c-26.2,12.5-47.9,31.1-68.7,51c-5.9,5.6-11.5,11.5-17.3,17.2C10.5,215.7,8.3,218,4.7,217.7z"/>
</g>
</svg>
