<svg xmlns="http://www.w3.org/2000/svg" viewBox="0 0 32 32"><path fill="currentColor" d="M8.83,25.5H24.67V1.28L21.4,2.81,17.52,1,13.66,2.81,9.78,1,5.91,2.81,2.65,1.28V27a3.75,3.75,0,0,0,1,2.57,3.43,3.43,0,0,0,2.12,1.1l.2,0a2,2,0,0,0,1-.29,2.87,2.87,0,0,0,.93-.86,5.82,5.82,0,0,0,1-3.44V25.5ZM6.31,8.8H21.09v1.81H6.31Zm0,5.37H21.09V16H6.31Zm0,7.17V19.53H14v1.81Z"/><path fill="currentColor" d="M10.08,27a7.34,7.34,0,0,1-.68,2.71A5.32,5.32,0,0,1,8.55,31h18a2,2,0,0,0,1-.28,3.11,3.11,0,0,0,.92-.87A5.48,5.48,0,0,0,29.35,27Z"/></svg>
